<svg width="10" height="8" viewBox="0 0 10 8" fill="none" xmlns="http://www.w3.org/2000/svg">
<g clip-path="url(#clip0)">
<path fill-rule="evenodd" clip-rule="evenodd" d="M0.796387 4.36544C0.796387 4.22921 0.853212 4.09857 0.954363 4.00224C1.05551 3.90591 1.1927 3.8518 1.33575 3.8518H7.58481L5.26878 1.64724C5.16751 1.55079 5.11061 1.41998 5.11061 1.28358C5.11061 1.14718 5.16751 1.01637 5.26878 0.91992C5.37006 0.823471 5.50742 0.769287 5.65065 0.769287C5.79388 0.769287 5.93124 0.823471 6.03252 0.91992L9.2687 4.00178C9.31893 4.04949 9.35878 4.10618 9.38597 4.16858C9.41316 4.23098 9.42716 4.29788 9.42716 4.36544C9.42716 4.433 9.41316 4.4999 9.38597 4.5623C9.35878 4.62471 9.31893 4.68139 9.2687 4.7291L6.03252 7.81096C5.93124 7.90741 5.79388 7.9616 5.65065 7.9616C5.50742 7.9616 5.37006 7.90741 5.26878 7.81096C5.16751 7.71451 5.11061 7.5837 5.11061 7.4473C5.11061 7.3109 5.16751 7.18009 5.26878 7.08364L7.58481 4.87909H1.33575C1.1927 4.87909 1.05551 4.82497 0.954363 4.72864C0.853212 4.63232 0.796387 4.50167 0.796387 4.36544Z" fill="white"/>
</g>
<defs>
<clipPath id="clip0">
<rect width="8.63077" height="7.19231" fill="white" transform="translate(0.796387 0.769287)"/>
</clipPath>
</defs>
</svg>
