<svg width="8" height="13" viewBox="0 0 8 13" fill="none" xmlns="http://www.w3.org/2000/svg">
<path fill-rule="evenodd" clip-rule="evenodd" d="M1.03773 0.726208C1.07884 0.684994 1.12768 0.652296 1.18144 0.629986C1.23521 0.607675 1.29285 0.596191 1.35106 0.596191C1.40927 0.596191 1.46691 0.607675 1.52067 0.629986C1.57444 0.652296 1.62327 0.684994 1.66438 0.726208L6.975 6.03683C7.01622 6.07794 7.04891 6.12677 7.07123 6.18054C7.09354 6.2343 7.10502 6.29194 7.10502 6.35015C7.10502 6.40836 7.09354 6.466 7.07123 6.51977C7.04891 6.57353 7.01622 6.62237 6.975 6.66348L1.66438 11.9741C1.58128 12.0572 1.46858 12.1039 1.35106 12.1039C1.23354 12.1039 1.12083 12.0572 1.03773 11.9741C0.954631 11.891 0.907947 11.7783 0.907947 11.6608C0.907947 11.5433 0.954631 11.4305 1.03773 11.3474L6.03591 6.35015L1.03773 1.35286C0.996517 1.31175 0.963819 1.26292 0.941509 1.20915C0.919199 1.15538 0.907715 1.09775 0.907715 1.03953C0.907715 0.981323 0.919199 0.923684 0.941509 0.869919C0.963819 0.816153 0.996517 0.767317 1.03773 0.726208Z" fill="#23A6F0"/>
</svg>
