<svg width="14" height="14" viewBox="0 0 14 14" fill="none" xmlns="http://www.w3.org/2000/svg">
<path d="M13.5502 5.517C13.5088 5.39487 13.4324 5.28755 13.3307 5.2083C13.2289 5.12905 13.1062 5.08133 12.9776 5.07104L9.21664 4.77219L7.58915 1.16956C7.53732 1.05352 7.45301 0.95497 7.34641 0.88579C7.23981 0.816611 7.11546 0.779763 6.98838 0.779694C6.86129 0.779624 6.7369 0.816335 6.63022 0.885397C6.52354 0.954459 6.43913 1.05292 6.38717 1.1689L4.75968 4.77219L0.998717 5.07104C0.872355 5.08105 0.751551 5.12725 0.65076 5.20412C0.549969 5.28099 0.473457 5.38527 0.430378 5.50448C0.3873 5.6237 0.379479 5.7528 0.407851 5.87634C0.436223 5.99988 0.499586 6.11264 0.590361 6.20111L3.36969 8.91051L2.38673 13.1669C2.35689 13.2958 2.36645 13.4306 2.41419 13.5539C2.46193 13.6773 2.54563 13.7834 2.65444 13.8586C2.76325 13.9337 2.89214 13.9745 3.02439 13.9755C3.15664 13.9765 3.28613 13.9377 3.39608 13.8642L6.98816 11.4695L10.5802 13.8642C10.6926 13.9388 10.8251 13.9772 10.96 13.9743C11.0948 13.9713 11.2256 13.9271 11.3345 13.8477C11.4435 13.7682 11.5256 13.6573 11.5696 13.5298C11.6137 13.4023 11.6177 13.2644 11.581 13.1346L10.3744 8.91249L13.3668 6.21958C13.5628 6.04278 13.6347 5.76703 13.5502 5.517Z" fill="#F3CD03"/>
</svg>
