<svg width="18" height="19" viewBox="0 0 18 19" fill="none" xmlns="http://www.w3.org/2000/svg">
<path fill-rule="evenodd" clip-rule="evenodd" d="M12.7328 11.9016L17.3759 16.5448C17.5391 16.7081 17.6308 16.9295 17.6307 17.1604C17.6306 17.3913 17.5388 17.6127 17.3755 17.7759C17.2122 17.9391 16.9907 18.0307 16.7598 18.0306C16.529 18.0306 16.3076 17.9388 16.1444 17.7755L11.5012 13.1323C10.1132 14.2074 8.36778 14.7133 6.62 14.5471C4.87222 14.381 3.25339 13.5552 2.09282 12.2379C0.932252 10.9205 0.31713 9.21051 0.37259 7.45573C0.42805 5.70094 1.14993 4.0332 2.39136 2.79176C3.6328 1.55032 5.30055 0.82844 7.05534 0.77298C8.81012 0.71752 10.5201 1.33264 11.8375 2.49321C13.1548 3.65378 13.9806 5.27262 14.1467 7.0204C14.3129 8.76818 13.807 10.5136 12.7319 11.9016H12.7328ZM7.27408 12.8518C8.64743 12.8518 9.96453 12.3063 10.9356 11.3352C11.9067 10.3641 12.4523 9.04696 12.4523 7.6736C12.4523 6.30026 11.9067 4.98316 10.9356 4.01205C9.96453 3.04095 8.64743 2.49538 7.27408 2.49538C5.90073 2.49538 4.58363 3.04095 3.61252 4.01205C2.64142 4.98316 2.09586 6.30026 2.09586 7.6736C2.09586 9.04696 2.64142 10.3641 3.61252 11.3352C4.58363 12.3063 5.90073 12.8518 7.27408 12.8518Z" fill="white"/>
</svg>
