<svg width="24" height="24" viewBox="0 0 24 24" fill="none" xmlns="http://www.w3.org/2000/svg">
<rect x="0.394287" y="0.365479" width="23.0154" height="23.0154" rx="11.5077" fill="#BDBDBD"/>
<g clip-path="url(#clip0)">
<path fill-rule="evenodd" clip-rule="evenodd" d="M17.8685 7.70471C17.9151 7.75118 17.9521 7.80639 17.9773 7.86717C18.0025 7.92794 18.0155 7.9931 18.0155 8.0589C18.0155 8.1247 18.0025 8.18986 17.9773 8.25064C17.9521 8.31142 17.9151 8.36662 17.8685 8.41309L10.8648 15.4168C10.8183 15.4634 10.7631 15.5004 10.7023 15.5256C10.6415 15.5508 10.5764 15.5638 10.5106 15.5638C10.4448 15.5638 10.3796 15.5508 10.3189 15.5256C10.2581 15.5004 10.2029 15.4634 10.1564 15.4168L6.65452 11.915C6.56059 11.821 6.50781 11.6936 6.50781 11.5608C6.50781 11.4279 6.56059 11.3005 6.65452 11.2066C6.74846 11.1127 6.87587 11.0599 7.00871 11.0599C7.14156 11.0599 7.26897 11.1127 7.3629 11.2066L10.5106 14.3553L17.1602 7.70471C17.2066 7.65812 17.2618 7.62116 17.3226 7.59594C17.3834 7.57072 17.4485 7.55774 17.5143 7.55774C17.5801 7.55774 17.6453 7.57072 17.7061 7.59594C17.7669 7.62116 17.8221 7.65812 17.8685 7.70471Z" fill="white"/>
</g>
<defs>
<clipPath id="clip0">
<rect width="11.5077" height="7.91154" fill="white" transform="translate(6.14819 7.55774)"/>
</clipPath>
</defs>
</svg>
