<svg width="52" height="53" viewBox="0 0 52 53" fill="none" xmlns="http://www.w3.org/2000/svg">
<rect x="0.072998" y="0.876984" width="51.7846" height="51.7846" rx="25.8923" fill="#23A6F0"/>
<g clip-path="url(#clip0)">
<path fill-rule="evenodd" clip-rule="evenodd" d="M33.8468 33.4821C33.8468 33.4821 34.9556 33.4821 34.9556 32.3633C34.9556 31.2445 33.8468 27.8881 29.4116 27.8881C24.9763 27.8881 23.8675 31.2445 23.8675 32.3633C23.8675 33.4821 24.9763 33.4821 24.9763 33.4821H33.8468ZM25.0007 32.3633H33.8224C33.8276 32.3627 33.8328 32.362 33.8379 32.3611L33.8468 32.3589C33.8446 32.0635 33.6616 31.2065 33.0041 30.4345C32.392 29.7106 31.3165 29.0069 29.4116 29.0069C27.5077 29.0069 26.4322 29.7118 25.819 30.4345C25.1615 31.2065 24.9774 32.0646 24.9763 32.3589C24.9844 32.3604 24.9925 32.3619 25.0007 32.3633ZM29.4116 25.6505C29.9997 25.6505 30.5638 25.4148 30.9797 24.9951C31.3955 24.5755 31.6292 24.0063 31.6292 23.4129C31.6292 22.8194 31.3955 22.2503 30.9797 21.8307C30.5638 21.411 29.9997 21.1753 29.4116 21.1753C28.8234 21.1753 28.2593 21.411 27.8435 21.8307C27.4276 22.2503 27.1939 22.8194 27.1939 23.4129C27.1939 24.0063 27.4276 24.5755 27.8435 24.9951C28.2593 25.4148 28.8234 25.6505 29.4116 25.6505ZM32.738 23.4129C32.738 23.8537 32.652 24.2901 32.4848 24.6973C32.3176 25.1046 32.0726 25.4746 31.7637 25.7862C31.4548 26.0979 31.0881 26.3451 30.6845 26.5138C30.2809 26.6825 29.8484 26.7693 29.4116 26.7693C28.9747 26.7693 28.5422 26.6825 28.1386 26.5138C27.735 26.3451 27.3683 26.0979 27.0594 25.7862C26.7505 25.4746 26.5055 25.1046 26.3383 24.6973C26.1712 24.2901 26.0851 23.8537 26.0851 23.4129C26.0851 22.5227 26.4356 21.669 27.0594 21.0396C27.6832 20.4101 28.5293 20.0565 29.4116 20.0565C30.2938 20.0565 31.1399 20.4101 31.7637 21.0396C32.3875 21.669 32.738 22.5227 32.738 23.4129ZM24.9053 28.2014C24.4618 28.0604 24.0046 27.9678 23.5415 27.925C23.2813 27.9001 23.02 27.8877 22.7587 27.8881C18.3234 27.8881 17.2146 31.2445 17.2146 32.3633C17.2146 33.1096 17.5838 33.4821 18.3234 33.4821H22.9982C22.8338 33.1329 22.7518 32.7499 22.7587 32.3633C22.7587 31.2333 23.1767 30.0787 23.9673 29.1143C24.2367 28.7854 24.5505 28.4777 24.9053 28.2014ZM22.67 29.0069C20.8205 29.0293 19.7704 29.7229 19.1661 30.4345C18.5042 31.211 18.3234 32.0713 18.3234 32.3633H21.6499C21.6499 31.1942 22.008 30.0295 22.67 29.0069ZM18.8778 23.9723C18.8778 23.0821 19.2283 22.2284 19.8521 21.599C20.4759 20.9695 21.322 20.6159 22.2043 20.6159C23.0865 20.6159 23.9326 20.9695 24.5564 21.599C25.1802 22.2284 25.5307 23.0821 25.5307 23.9723C25.5307 24.8625 25.1802 25.7162 24.5564 26.3456C23.9326 26.9751 23.0865 27.3287 22.2043 27.3287C21.322 27.3287 20.4759 26.9751 19.8521 26.3456C19.2283 25.7162 18.8778 24.8625 18.8778 23.9723ZM22.2043 21.7347C21.6161 21.7347 21.052 21.9704 20.6362 22.3901C20.2203 22.8097 19.9866 23.3788 19.9866 23.9723C19.9866 24.5658 20.2203 25.1349 20.6362 25.5545C21.052 25.9742 21.6161 26.2099 22.2043 26.2099C22.7924 26.2099 23.3565 25.9742 23.7724 25.5545C24.1882 25.1349 24.4219 24.5658 24.4219 23.9723C24.4219 23.3788 24.1882 22.8097 23.7724 22.3901C23.3565 21.9704 22.7924 21.7347 22.2043 21.7347Z" fill="white"/>
</g>
<defs>
<clipPath id="clip0">
<rect width="17.2615" height="14.2154" fill="white" transform="translate(17.3345 19.577)"/>
</clipPath>
</defs>
</svg>
