<svg width="14" height="14" viewBox="0 0 14 14" fill="none" xmlns="http://www.w3.org/2000/svg">
<path d="M3.08666 8.91058L2.1037 13.167C2.07326 13.2959 2.0824 13.4309 2.12992 13.5545C2.17744 13.6782 2.26113 13.7846 2.37007 13.8599C2.479 13.9352 2.60812 13.9759 2.74055 13.9767C2.87298 13.9775 3.00256 13.9383 3.11239 13.8643L6.70447 11.4696L10.2966 13.8643C10.4089 13.9389 10.5414 13.9773 10.6763 13.9743C10.8111 13.9714 10.9419 13.9272 11.0509 13.8477C11.1598 13.7683 11.2419 13.6573 11.286 13.5299C11.33 13.4024 11.334 13.2645 11.2973 13.1347L10.0907 8.91256L13.0831 6.21965C13.179 6.13335 13.2474 6.02086 13.28 5.89607C13.3126 5.77129 13.3079 5.63969 13.2665 5.51756C13.2251 5.39542 13.1487 5.2881 13.047 5.20887C12.9452 5.12964 12.8225 5.08197 12.6939 5.07177L8.93295 4.77226L7.30546 1.16962C7.25356 1.05362 7.16921 0.955111 7.06256 0.885991C6.95592 0.81687 6.83155 0.78009 6.70447 0.78009C6.57739 0.78009 6.45302 0.81687 6.34638 0.885991C6.23973 0.955111 6.15537 1.05362 6.10348 1.16962L4.47599 4.77226L0.715026 5.07111C0.588663 5.08112 0.46786 5.12732 0.367069 5.20419C0.266277 5.28106 0.189765 5.38534 0.146687 5.50455C0.103609 5.62376 0.0957874 5.75287 0.124159 5.87641C0.152531 5.99995 0.215895 6.1127 0.30667 6.20118L3.08666 8.91058ZM4.96879 6.0567C5.08654 6.04743 5.19963 6.00664 5.2962 5.93863C5.39277 5.87061 5.46927 5.77787 5.51766 5.67012L6.70447 3.04384L7.89128 5.67012C7.93967 5.77787 8.01617 5.87061 8.11274 5.93863C8.20931 6.00664 8.32239 6.04743 8.44015 6.0567L11.0605 6.26451L8.9026 8.20668C8.71524 8.37556 8.6407 8.63548 8.70931 8.87825L9.53591 11.7711L7.07126 10.1277C6.96308 10.0551 6.83575 10.0164 6.70546 10.0164C6.57517 10.0164 6.44783 10.0551 6.33965 10.1277L3.76417 11.8449L4.45686 8.84593C4.48226 8.73563 4.47885 8.62065 4.44696 8.51204C4.41508 8.40344 4.35578 8.30487 4.27478 8.22581L2.27061 6.27177L4.96879 6.0567Z" fill="#F3CD03"/>
</svg>
