<svg width="24" height="24" viewBox="0 0 24 24" fill="none" xmlns="http://www.w3.org/2000/svg">
<rect x="0.394287" y="0.953857" width="23.0154" height="23.0154" rx="11.5077" fill="#2DC071"/>
<g clip-path="url(#clip0)">
<path fill-rule="evenodd" clip-rule="evenodd" d="M17.8685 8.29321C17.9151 8.33968 17.9521 8.39489 17.9773 8.45567C18.0025 8.51644 18.0155 8.5816 18.0155 8.6474C18.0155 8.71321 18.0025 8.77836 17.9773 8.83914C17.9521 8.89992 17.9151 8.95512 17.8685 9.00159L10.8648 16.0053C10.8183 16.0519 10.7631 16.0889 10.7023 16.1141C10.6415 16.1393 10.5764 16.1523 10.5106 16.1523C10.4448 16.1523 10.3796 16.1393 10.3189 16.1141C10.2581 16.0889 10.2029 16.0519 10.1564 16.0053L6.65452 12.5035C6.56059 12.4095 6.50781 12.2821 6.50781 12.1493C6.50781 12.0164 6.56059 11.889 6.65452 11.7951C6.74846 11.7012 6.87587 11.6484 7.00871 11.6484C7.14156 11.6484 7.26897 11.7012 7.3629 11.7951L10.5106 14.9438L17.1602 8.29321C17.2066 8.24662 17.2618 8.20966 17.3226 8.18444C17.3834 8.15922 17.4485 8.14624 17.5143 8.14624C17.5801 8.14624 17.6453 8.15922 17.7061 8.18444C17.7669 8.20966 17.8221 8.24662 17.8685 8.29321Z" fill="white"/>
</g>
<defs>
<clipPath id="clip0">
<rect width="11.5077" height="7.91154" fill="white" transform="translate(6.14819 8.14624)"/>
</clipPath>
</defs>
</svg>
